<mxfile host="65bd71144e">
    <diagram id="VeeTmUlwIopFXhQv0ddA" name="Page-1">
        <mxGraphModel dx="1007" dy="810" grid="1" gridSize="10" guides="1" tooltips="1" connect="1" arrows="1" fold="1" page="1" pageScale="1" pageWidth="1654" pageHeight="1169" math="0" shadow="0">
            <root>
                <mxCell id="0"/>
                <mxCell id="1" parent="0"/>
                <mxCell id="2" value="ProductService" style="swimlane;startSize=23;" parent="1" vertex="1">
                    <mxGeometry x="660" y="310" width="560" height="210" as="geometry"/>
                </mxCell>
                <mxCell id="4" value="&lt;div style=&quot;text-align: left&quot;&gt;&lt;span style=&quot;font-size: 27px&quot;&gt;CreateProductService&lt;/span&gt;&lt;/div&gt;&lt;div style=&quot;text-align: left&quot;&gt;&lt;span style=&quot;font-size: 27px&quot;&gt;&lt;br&gt;&lt;/span&gt;&lt;/div&gt;&lt;span style=&quot;font-size: 27px&quot;&gt;&lt;div style=&quot;text-align: left&quot;&gt;&lt;span&gt;EditProductService&lt;/span&gt;&lt;/div&gt;&lt;/span&gt;" style="text;html=1;align=center;verticalAlign=middle;resizable=0;points=[];autosize=1;strokeColor=none;fillColor=none;" parent="2" vertex="1">
                    <mxGeometry x="17" y="70" width="280" height="60" as="geometry"/>
                </mxCell>
            </root>
        </mxGraphModel>
    </diagram>
</mxfile>